# xmcd
#
# Track frame offsets:
#	150
#	18753
#	36979
#	53153
#	71230
#	87025
#	106301
#	124902
#	143128
#	159304
#	177382
#	193175
#	212452
#	231730
#
# Disc length: 3346 seconds
#
# Revision: 1
# Processed by: cddbd v1.5.2PL0 Copyright (c) Steve Scherf et al.
# Submitted via: audiograbber 1.83.01
#
DISCID=c60d100e
DTITLE=Various Artist - CB20006 Hot Hits Vol. 6
DYEAR=1900
DGENRE=Karaoke
TTITLE0=Buffalo Club, The - Nothin' Less Than Love (Vocals)
TTITLE1=Joe Diffie - Something Like This (Vocals)
TTITLE2=Mark Chesnutt - Thank God For Believers (Vocals)
TTITLE3=Deana Carter - How Do I Get There (Vocals)
TTITLE4=Brian White - Love Is The Right Place (Vocals)
TTITLE5=Travis Tritt Ft. Lari White - Helping Me Get Over You (Vocals)
TTITLE6=Buffalo Club, The - Nothin' Less Than Love
TTITLE7=Joe Diffie - Something Like This
TTITLE8=Mark Chesnutt - Thank God For Believers
TTITLE9=Deana Carter - How Do I Get There
TTITLE10=Brian White - Love Is The Right Place
TTITLE11=Travis Tritt Ft. Lari White  - Helping Me Get Over You (Male Version)
TTITLE12=Travis Tritt Ft. Lari White - Helping Me Get Over You (Female Version)
TTITLE13=Travis Tritt Ft. Lari White - Helping Me Get Over You (Duet Version)
EXTD=
EXTT0=
EXTT1=
EXTT2=
EXTT3=
EXTT4=
EXTT5=
EXTT6=
EXTT7=
EXTT8=
EXTT9=
EXTT10=
EXTT11=
EXTT12=
EXTT13=
PLAYORDER=
